PathFileType	4	(X/Y/Z)	pose_F01_0-91.trc
DataRate	CameraRate	NumFrames	NumMarkers	Units	OrigDataRate	OrigDataStartFrame	OrigNumFrames
30	30	5	21	m	30	22	91
Frame#	Time	CHip			RHip			RKnee			RAnkle			RBigToe			RSmallToe			RHeel			LHip			LKnee			LAnkle			LBigToe			LSmallToe			LHeel			Neck			Nose			RShoulder			RElbow			RWrist			LShoulder			LElbow			LWrist			
		X1	Y1	Z1	X2	Y2	Z2	X3	Y3	Z3	X4	Y4	Z4	X5	Y5	Z5	X6	Y6	Z6	X7	Y7	Z7	X8	Y8	Z8	X9	Y9	Z9	X10	Y10	Z10	X11	Y11	Z11	X12	Y12	Z12	X13	Y13	Z13	X14	Y14	Z14	X15	Y15	Z15	X16	Y16	Z16	X17	Y17	Z17	X18	Y18	Z18	X19	Y19	Z19	X20	Y20	Z20	X21	Y21	Z21	
22	0.7333333333333333	-0.19896794545760355	1.884836706433045	-0.5843084730056797	-0.21062847343474966	1.8827251127699294	-0.5113780012374495	-0.1992532493239219	1.7338262882699644	-0.50449354259782	-0.20018044974553686	1.5858601401972534	-0.4856097796872796	-0.22891151839523283	1.5445227121611511	-0.45494187632212174	-0.22471315147374465	1.552057500388994	-0.42840225489606676	-0.19787982299808174	1.5767237421863483	-0.5003608511950491	-0.1840207240311574	1.889615607082235	-0.6511789862833147	-0.1805771177144295	1.7356782212841335	-0.6332418096589277	-0.1778427407590928	1.5869432244324047	-0.6148755223206829	-0.200692816440206	1.5426295700828982	-0.6330393544348941	-0.18849084563941457	1.5495770411831056	-0.6588286473648168	-0.1758212689313866	1.5753520998461215	-0.5985402019110317	-0.19096664029686575	2.053026347025014	-0.5888787980442131	-0.21685635829219177	2.114249766233671	-0.5819163942311573	-0.20880783694611052	2.045244948695162	-0.4937862475055632	-0.2120613045753875	1.9587659881520822	-0.46376134925718154	-0.21783149964395268	1.876749517701927	-0.4277645297730795	-0.172063953722835	2.0600342034997476	-0.6896505478508133	-0.1253671513980941	2.00147055440185	-0.8139071381435647	-1.3132855673434818	1.836141952756129	0.42292341704843683
23	0.7666666666666667	-0.19896794545760355	1.884836706433045	-0.5843084730056797	-0.21062847343474966	1.8827251127699294	-0.5113780012374495	-0.1992532493239219	1.7338262882699644	-0.50449354259782	-0.20018044974553686	1.5858601401972534	-0.4856097796872796	-0.22891151839523283	1.5445227121611511	-0.45494187632212174	-0.22471315147374465	1.552057500388994	-0.42840225489606676	-0.19787982299808174	1.5767237421863483	-0.5003608511950491	-0.1840207240311574	1.889615607082235	-0.6511789862833147	-0.1805771177144295	1.7356782212841335	-0.6332418096589277	-0.1778427407590928	1.5869432244324047	-0.6148755223206829	-0.200692816440206	1.5426295700828982	-0.6330393544348941	-0.18849084563941457	1.5495770411831056	-0.6588286473648168	-0.1758212689313866	1.5753520998461215	-0.5985402019110317	-0.19096664029686575	2.053026347025014	-0.5888787980442131	-0.21685635829219177	2.114249766233671	-0.5819163942311573	-0.20880783694611052	2.045244948695162	-0.4937862475055632	-0.2120613045753875	1.9587659881520822	-0.46376134925718154	-0.21783149964395268	1.876749517701927	-0.4277645297730795	-0.172063953722835	2.0600342034997476	-0.6896505478508133	-0.1253671513980941	2.00147055440185	-0.8139071381435647	-1.3140559497388595	1.835192172510683	0.42444692646380044
24	0.8	-0.19896794545760355	1.884836706433045	-0.5843084730056797	-0.21062847343474966	1.8827251127699294	-0.5113780012374495	-0.1992532493239219	1.7338262882699644	-0.50449354259782	-0.20018044974553686	1.5858601401972534	-0.4856097796872796	-0.22891151839523283	1.5445227121611511	-0.45494187632212174	-0.22471315147374465	1.552057500388994	-0.42840225489606676	-0.19787982299808174	1.5767237421863483	-0.5003608511950491	-0.1840207240311574	1.889615607082235	-0.6511789862833147	-0.1805771177144295	1.7356782212841335	-0.6332418096589277	-0.1778427407590928	1.5869432244324047	-0.6148755223206829	-0.200692816440206	1.5426295700828982	-0.6330393544348941	-0.18849084563941457	1.5495770411831056	-0.6588286473648168	-0.1758212689313866	1.5753520998461215	-0.5985402019110317	-0.19096664029686575	2.053026347025014	-0.5888787980442131	-0.21685635829219177	2.114249766233671	-0.5819163942311573	-0.20880783694611052	2.045244948695162	-0.4937862475055632	-0.2120613045753875	1.9587659881520822	-0.46376134925718154	-0.21783149964395268	1.876749517701927	-0.4277645297730795	-0.172063953722835	2.0600342034997476	-0.6896505478508133	-0.1253671513980941	2.00147055440185	-0.8139071381435647	-1.319229557785433	1.8409006202671436	0.43016633718111624
25	0.8333333333333334	-0.19896794545760355	1.884836706433045	-0.5843084730056797	-0.21062847343474966	1.8827251127699294	-0.5113780012374495	-0.1992532493239219	1.7338262882699644	-0.50449354259782	-0.20018044974553686	1.5858601401972534	-0.4856097796872796	-0.22891151839523283	1.5445227121611511	-0.45494187632212174	-0.22471315147374465	1.552057500388994	-0.42840225489606676	-0.19787982299808174	1.5767237421863483	-0.5003608511950491	-0.1840207240311574	1.889615607082235	-0.6511789862833147	-0.1805771177144295	1.7356782212841335	-0.6332418096589277	-0.1778427407590928	1.5869432244324047	-0.6148755223206829	-0.200692816440206	1.5426295700828982	-0.6330393544348941	-0.18849084563941457	1.5495770411831056	-0.6588286473648168	-0.1758212689313866	1.5753520998461215	-0.5985402019110317	-0.19096664029686575	2.053026347025014	-0.5888787980442131	-0.21685635829219177	2.114249766233671	-0.5819163942311573	-0.20880783694611052	2.045244948695162	-0.4937862475055632	-0.2120613045753875	1.9587659881520822	-0.46376134925718154	-0.21783149964395268	1.876749517701927	-0.4277645297730795	-0.172063953722835	2.0600342034997476	-0.6896505478508133	-0.1253671513980941	2.00147055440185	-0.8139071381435647	-0.1574861509763908	1.930341313421275	-0.7637482102747365
26	0.8666666666666667	-0.19829260721973468	1.884907146497894	-0.5814438700652558	-0.21090814522783222	1.880312923135089	-0.511105904682419	-0.19987421030742955	1.7328814009788678	-0.503813377439416	-0.2023232576875797	1.587164298005467	-0.48318906711140175	-0.2317345651689998	1.545821368265487	-0.4563734503738721	-0.22764760783707277	1.5513807845200551	-0.4296102528948431	-0.19716406093169403	1.578287476278473	-0.49676498397957447	-0.18416746933248967	1.889599641107576	-0.6513099911670958	-0.18314627665019576	1.7331164219198973	-0.6303099236218307	-0.1777956680450601	1.5868571370386286	-0.6148967385994152	-0.20055104968435258	1.5411382653090628	-0.6332660057539596	-0.18863590599662902	1.5497341869884318	-0.6587382639988844	-0.17599461401056182	1.5738921090876195	-0.5980581162051216	-0.19097868341147767	2.053043109999582	-0.5888283988416535	-0.21579980902055215	2.1144412437623106	-0.5868697396465582	-0.20871772064194388	2.046292328062678	-0.4936562508266619	-0.2129326197330356	1.9545855106837697	-0.4662331819439291	-0.21768793115190826	1.8728678962769685	-0.43594416420689475	-0.1720843037341514	2.0601087791862764	-0.6895835383391022	-0.12351650942105981	2.0055465388721174	-0.8196667525114291	-0.15091389754742868	1.9371704240598195	-0.7746080746389834
